# xmcd
#
# Track frame offsets:
#  150
#  13070
#  30600
#  41522
#  60155
#  78115
#  92837
#  107302
#  119625
#  131242
#  145802
#  160087
#  174110
#  186637
#  205080
#  216467
#  231610
#  243075
#
# Disc length: 3481 seconds
#
# Revision: 1
# Processed by: cddbd v1.5.2PL0 Copyright (c) Steve Scherf et al.
# Submitted via: Collectorz.com Music Collector 6.9
#
DISCID=f40d9712
DTITLE=Daniel O'Donnell - The Classic Collection CD 2
DYEAR=1993
DGENRE=Country
TTITLE0=World of Our Own
TTITLE1=Love Me
TTITLE2=The Minute You're Gone
TTITLE3=My Forever Friend
TTITLE4=Follow Your Dream
TTITLE5=The Old House
TTITLE6=A Little Piece of Heaven
TTITLE7=The Old Dungarvan Oak
TTITLE8=Walk Right Back
TTITLE9=Distant Drums
TTITLE10=Little Cabin Home on the Hill
TTITLE11=Lovers Chain
TTITLE12=The Little Things
TTITLE13=Mary From Dungloe
TTITLE14=Just Walking in the Rain
TTITLE15=The Old Photograph
TTITLE16=Moonlight And Roses
TTITLE17=I'll Take You Home Again Kathleen
EXTD=
EXTT0=
EXTT1=
EXTT2=
EXTT3=
EXTT4=
EXTT5=
EXTT6=
EXTT7=
EXTT8=
EXTT9=
EXTT10=
EXTT11=
EXTT12=
EXTT13=
EXTT14=
EXTT15=
EXTT16=
EXTT17=
PLAYORDER=
